<?xml version="1.0" encoding="utf-8"?>
<!-- Generator: Adobe Illustrator 16.0.0, SVG Export Plug-In . SVG Version: 6.00 Build 0)  -->
<!DOCTYPE svg PUBLIC "-//W3C//DTD SVG 1.1//EN" "http://www.w3.org/Graphics/SVG/1.1/DTD/svg11.dtd">
<svg version="1.1" id="Layer_1" xmlns="http://www.w3.org/2000/svg" xmlns:xlink="http://www.w3.org/1999/xlink" x="0px" y="0px"
	 width="428px" height="410px" viewBox="0 0 428 410" enable-background="new 0 0 428 410" xml:space="preserve">
<path fill="none" stroke="#2C3E50" stroke-width="16" stroke-linecap="round" stroke-linejoin="round" stroke-miterlimit="10" d="
	M216,395.6c111.2,0,201.6-85.6,201.6-192c0-106.399-90.399-192-201.6-192S14.4,98,14.4,203.6c0,84,52,132,68,28
	c12-76.8,69.6-59.2,64,40C143.2,319.6,104,395.6,216,395.6z"/>
<rect x="-32" y="-62" fill="none" width="512" height="512"/>
<circle fill="none" stroke="#45EF33" stroke-width="16" stroke-linecap="round" stroke-linejoin="round" stroke-miterlimit="10" cx="240" cy="79.2" r="31.2"/>
<rect x="-32" y="-62" fill="none" width="512" height="512"/>
<circle fill="none" stroke="#EF1B1B" stroke-width="16" stroke-linecap="round" stroke-linejoin="round" stroke-miterlimit="10" cx="141.6" cy="96" r="31.2"/>
<rect x="-32" y="-62" fill="none" width="512" height="512"/>
<circle fill="none" stroke="#F4F938" stroke-width="16" stroke-linecap="round" stroke-linejoin="round" stroke-miterlimit="10" cx="323.2" cy="134.4" r="31.2"/>
<rect x="-32" y="-62" fill="none" width="512" height="512"/>
<circle fill="none" stroke="#E21ED4" stroke-width="16" stroke-linecap="round" stroke-linejoin="round" stroke-miterlimit="10" cx="342.4" cy="235.2" r="31.2"/>
<rect x="-32" y="-62" fill="none" width="512" height="512"/>
<circle fill="none" stroke="#EF9616" stroke-width="16" stroke-linecap="round" stroke-linejoin="round" stroke-miterlimit="10" cx="270.4" cy="312" r="31.2"/>
<rect x="-32" y="-62" fill="none" width="512" height="512"/>
</svg>
