<?xml version="1.0" encoding="utf-8"?>
<!-- Generator: Adobe Illustrator 16.0.0, SVG Export Plug-In . SVG Version: 6.00 Build 0)  -->
<!DOCTYPE svg PUBLIC "-//W3C//DTD SVG 1.1//EN" "http://www.w3.org/Graphics/SVG/1.1/DTD/svg11.dtd">
<svg version="1.1" id="Layer_1" xmlns="http://www.w3.org/2000/svg" xmlns:xlink="http://www.w3.org/1999/xlink" x="0px" y="0px"
	 width="326px" height="290px" viewBox="0 0 326 290" enable-background="new 0 0 326 290" xml:space="preserve">
<path fill="#2C3E50" d="M163.839,27.476l123.487,58.672l-123.487,58.666L40.362,86.147L163.839,27.476z M13.969,94.784
	l145.769,69.255c1.294,0.613,2.7,0.928,4.102,0.928c1.4,0,2.808-0.314,4.102-0.928l145.785-69.255
	c3.336-1.581,5.463-4.945,5.463-8.636s-2.127-7.056-5.463-8.637L167.946,8.25c-2.594-1.238-5.615-1.238-8.209,0L13.969,77.511
	c-3.336,1.581-5.463,4.946-5.463,8.637S10.632,93.203,13.969,94.784z"/>
<rect x="-97" y="-118" fill="none" width="512" height="512"/>
<path fill="#2C3E50" d="M318.266,140.437c-2.272-4.771-7.983-6.803-12.749-4.535l-141.678,67.303L22.178,135.901
	c-4.782-2.268-10.471-0.236-12.749,4.535c-2.262,4.782-0.231,10.476,4.54,12.749l145.769,69.255c1.294,0.613,2.7,0.923,4.102,0.923
	c1.4,0,2.808-0.31,4.102-0.923l145.785-69.261C318.496,150.918,320.527,145.213,318.266,140.437z"/>
<rect x="-97" y="-118" fill="none" width="512" height="512"/>
<path fill="#009DC7" d="M318.266,198.832c-2.272-4.782-7.983-6.791-12.749-4.534l-141.678,67.303L22.178,194.298
	c-4.782-2.257-10.471-0.248-12.749,4.534c-2.262,4.777-0.231,10.471,4.54,12.75l145.769,69.255c1.294,0.613,2.7,0.923,4.102,0.923
	c1.4,0,2.808-0.31,4.102-0.923l145.785-69.261C318.496,209.314,320.527,203.604,318.266,198.832z"/>
<rect x="-97" y="-118" fill="none" width="512" height="512"/>
</svg>
