<?xml version="1.0" encoding="utf-8"?>
<!-- Generator: Adobe Illustrator 16.0.0, SVG Export Plug-In . SVG Version: 6.00 Build 0)  -->
<!DOCTYPE svg PUBLIC "-//W3C//DTD SVG 1.1//EN" "http://www.w3.org/Graphics/SVG/1.1/DTD/svg11.dtd">
<svg version="1.1" id="Layer_1" xmlns="http://www.w3.org/2000/svg" xmlns:xlink="http://www.w3.org/1999/xlink" x="0px" y="0px"
	 width="398px" height="512px" viewBox="0 0 398 512" enable-background="new 0 0 398 512" xml:space="preserve">
<path fill="#2C3E50" d="M372,486H32V42h60v14c0,5.6,4.4,10,10,10h200c5.6,0,10-4.4,10-10V42h60V486z M112,26h180v20H112V26z M382,22
	h-70v-6c0-5.6-4.4-10-10-10H102c-5.6,0-10,4.4-10,10v6H22c-5.6,0-10,4.4-10,10v464c0,5.6,4.4,10,10,10h360c5.6,0,10-4.4,10-10V32
	C392,26.4,387.6,22,382,22z"/>
<rect x="-54" fill="none" width="512" height="512"/>
<path fill="#009DC7" d="M302,366H182c-5.6,0-10,4.4-10,10s4.4,10,10,10h120c5.6,0,10-4.4,10-10S307.6,366,302,366z"/>
<rect x="-54" fill="none" width="512" height="512"/>
<path fill="#2C3E50" d="M302,286H182c-5.6,0-10,4.4-10,10s4.4,10,10,10h120c5.6,0,10-4.4,10-10S307.6,286,302,286z"/>
<rect x="-54" fill="none" width="512" height="512"/>
<path fill="#2C3E50" d="M302,206H182c-5.6,0-10,4.4-10,10s4.4,10,10,10h120c5.6,0,10-4.4,10-10S307.6,206,302,206z"/>
<rect x="-54" fill="none" width="512" height="512"/>
<path fill="#2C3E50" d="M94,226h40c5.6,0,10-4.4,10-10s-4.4-10-10-10H94c-5.6,0-10,4.4-10,10S88.4,226,94,226z"/>
<rect x="-54" fill="none" width="512" height="512"/>
<path fill="#2C3E50" d="M302,126H182c-5.6,0-10,4.4-10,10s4.4,10,10,10h120c5.6,0,10-4.4,10-10S307.6,126,302,126z"/>
<rect x="-54" fill="none" width="512" height="512"/>
<path fill="#2C3E50" d="M94,146h40c5.6,0,10-4.4,10-10s-4.4-10-10-10H94c-5.6,0-10,4.4-10,10S88.4,146,94,146z"/>
<rect x="-54" fill="none" width="512" height="512"/>
<path fill="#2C3E50" d="M94,306h40c5.6,0,10-4.4,10-10s-4.4-10-10-10H94c-5.6,0-10,4.4-10,10S88.4,306,94,306z"/>
<rect x="-54" fill="none" width="512" height="512"/>
<path fill="#009DC7" d="M146.8,336.8L114,370l-16.8-16.8c-4-4-10.4-4-14,0c-3.6,4-4,10.399,0,14l24,24c2,2,4.4,2.8,7.2,2.8
	c2.8,0,5.2-0.8,7.2-2.8l40-40c4-4,4-10.4,0-14C157.6,333.6,150.8,333.2,146.8,336.8z"/>
<rect x="-54" fill="none" width="512" height="512"/>
</svg>
