<?xml version="1.0"?><svg width="200" height="200" xmlns="http://www.w3.org/2000/svg" xmlns:xlink="http://www.w3.org/1999/xlink">
 <title>speech bubble.jpg</title>
 <defs>
  <filter height="1.257362" y="-0.128681" width="1.224833" x="-0.112416" id="filter3807" color-interpolation-filters="sRGB">
   <feGaussianBlur id="feGaussianBlur3809" stdDeviation="1.499917"/>
  </filter>
 </defs>
 <metadata id="metadata3889">image/svg+xml</metadata>
 <g>
  <title>Layer 1</title>
  <a xlink:href="http://www.facebook.com/profile.php?id=100000488222427" id="svg_1">
   <g id="layer1">
    <g transform="matrix(4.20318 0 0 4.34149 -651.01 -291.259)" id="g3811">
     <path fill="#ffffff" filter="url(#filter3807)" d="m172.72934,80.17672c-1.706589,0.080307 -3.169266,1.002022 -4.375015,3.34375c-3.880066,-1.496353 -6.466797,0.81929 -5.874985,4.5c-2.48764,1.208122 -3.632034,4.98011 2,6.125c-0.641312,1.922112 0.266373,3.327866 2.624985,4.25c0.566589,1.818481 1.409348,3.195061 3.625015,2.375c2.080582,1.933197 4.502762,1.816757 7.249985,-0.25c2.657608,0.820526 5.305878,0.710213 7.125,-2.625c1.877136,-0.086884 4.864685,0.119041 4.375,-4c1.729858,-1.141373 3.554169,-2.694984 1.25,-5c0.171539,-2.649673 -0.649567,-5.571983 -4.25,-5.75c-2.467712,-3.378944 -5.533386,-3.437759 -9.375,-1.875c-1.562927,-0.7155 -3.047638,-1.156174 -4.374985,-1.09375zm-6.6875,20.96875c-0.931976,0 -1.687515,0.559647 -1.687515,1.25c0,0.690361 0.755539,1.25 1.687515,1.25c0.931961,0 1.6875,-0.559639 1.6875,-1.25c0,-0.690353 -0.755539,-1.25 -1.6875,-1.25zm-2.687515,3.25c-0.655823,0 -1.1875,0.405563 -1.1875,0.875c0,0.469437 0.531677,0.84375 1.1875,0.84375c0.655853,0 1.1875,-0.374313 1.1875,-0.84375c0,-0.469437 -0.531647,-0.875 -1.1875,-0.875zm-3.03125,3.09375c-0.303741,0 -0.531235,0.15596 -0.531235,0.34375c0,0.187775 0.227493,0.3125 0.531235,0.3125c0.303757,0 0.5625,-0.124725 0.5625,-0.3125c0,-0.18779 -0.258743,-0.34375 -0.5625,-0.34375z" id="path3633-6-4"/>
     <path fill="#ffffff" stroke="#000000" stroke-width="0.261478px" d="m172.865341,77.670975c-1.706573,0.080307 -3.16922,1.002007 -4.375,3.34375c-3.880066,-1.496368 -6.466797,0.81929 -5.875,4.499985c-2.487625,1.208122 -3.632019,4.98011 2,6.125015c-0.641296,1.922112 0.266373,3.327866 2.625,4.25c0.566589,1.818497 1.409363,3.195045 3.625,2.374985c2.080597,1.933212 4.502777,1.816772 7.25,-0.249985c2.657608,0.820496 5.305878,0.710205 7.125,-2.625c1.877167,-0.086899 4.864716,0.119041 4.375,-4c1.729889,-1.141388 3.554169,-2.694992 1.25,-5c0.17157,-2.649689 -0.649567,-5.571999 -4.25,-5.75c-2.467712,-3.378952 -5.533386,-3.437744 -9.375,-1.875c-1.562927,-0.7155 -3.047638,-1.156189 -4.375,-1.09375zm-6.687485,20.96875c-0.931976,0 -1.687515,0.559639 -1.687515,1.25c0,0.690346 0.755539,1.25 1.687515,1.25c0.931961,0 1.687485,-0.559654 1.687485,-1.25c0,-0.690361 -0.755524,-1.25 -1.687485,-1.25zm-2.687515,3.25c-0.655823,0 -1.1875,0.405556 -1.1875,0.875c0,0.469437 0.531677,0.84375 1.1875,0.84375c0.655853,0 1.1875,-0.374313 1.1875,-0.84375c0,-0.469444 -0.531647,-0.875 -1.1875,-0.875zm-3.03125,3.09375c-0.303741,0 -0.53125,0.155975 -0.53125,0.34375c0,0.187767 0.227509,0.3125 0.53125,0.3125c0.303772,0 0.5625,-0.124733 0.5625,-0.3125c0,-0.187775 -0.258728,-0.34375 -0.5625,-0.34375z" id="path3633-6"/>
    </g>
   </g>
  </a>
 </g>
</svg>