<?xml version="1.0" encoding="utf-8"?>
<!-- Generator: Adobe Illustrator 16.0.0, SVG Export Plug-In . SVG Version: 6.00 Build 0)  -->
<!DOCTYPE svg PUBLIC "-//W3C//DTD SVG 1.1//EN" "http://www.w3.org/Graphics/SVG/1.1/DTD/svg11.dtd">
<svg version="1.1" id="Layer_1" xmlns="http://www.w3.org/2000/svg" xmlns:xlink="http://www.w3.org/1999/xlink" x="0px" y="0px"
	 width="190.5px" height="220px" viewBox="0 0 190.5 220" enable-background="new 0 0 190.5 220" xml:space="preserve">
<path fill="#444443" d="M18.884,107.237c1.079,1.857,4.462,5.621,10.363,12.127c5.643,6.211,12.652,13.933,16.639,19.352
	c1.886,2.563,7.082,6.974,13.659,12.552c8.853,7.506,19.85,16.848,23.793,22.864c3.512,5.332,5.066,16.243,6.203,24.217
	c1.059,7.427,1.591,10.773,3.059,12.241c3.196,3.195,11.868,1.059,14.48,0.324c8.305-2.476,14.458-18.604,13.422-35.221
	c-1.008-16.222-19.554-40.957-20.338-41.993c-0.173-0.237-4.325-5.916-0.763-9.673c2.181-2.303,8.29-3.195,11.615-3.224
	l46.556,0.007c0.237,0,0.476-0.036,0.705-0.115c3.88-1.281,11.206-6.088,11.17-15.12c-0.008-5.304-2.339-9.054-4.887-11.594
	l3.943,0.007h0.008c0.237,0,0.475-0.043,0.698-0.115c3.879-1.281,11.212-6.081,11.184-15.105
	c-0.021-8.485-5.959-13.034-9.241-14.919c2.966-2.52,5.628-6.42,5.606-11.875c-0.021-11.443-10.881-15.747-11.342-15.919
	c-0.252-0.115-0.525-0.145-0.799-0.145h-2.102c2.461-2.562,4.455-6.146,4.434-10.91c-0.036-11.602-10.882-15.977-11.343-16.149
	c-0.259-0.115-0.532-0.158-0.813-0.158h-0.008L82.172,8.793c-2.764,0.201-67.621,5.182-67.621,42.691v40.719
	C14.551,98.817,17.271,104.467,18.884,107.237z M19.027,51.484c0-33.364,62.813-38.172,63.303-38.215l71.997-0.101
	c1.598,0.748,8.117,4.26,8.146,11.831c0.028,7.283-6.232,10.277-7.772,10.896h-36.438c-1.23,0-2.238,0.992-2.238,2.23
	s1.008,2.245,2.238,2.245h36.603c0.036,0,0.072,0,0.108,0h9.183c1.584,0.72,8.111,4.175,8.126,11.63
	c0.028,6.981-5.938,9.946-7.65,10.651h-48.384c-1.238,0-2.246,1.008-2.246,2.246c0,1.237,1.008,2.245,2.246,2.245h1.611
	c0.137,0.028,0.267,0.072,0.403,0.072l0,0l46.621-0.015c0.129,0,0.259-0.043,0.389-0.058h2.504c1.627,0.734,8.118,4.146,8.133,11.63
	c0.021,7.204-6.305,10.133-7.802,10.73l-10.759-0.021c-0.021,0-0.043-0.008-0.065-0.008l-46.635-0.058c0,0,0,0-0.007,0
	c-1.23,0-2.238,1.008-2.238,2.238c0,1.238,1,2.246,2.238,2.246l15.365,0.021l0,0l30.845,0.043c1.655,0.756,8.104,4.167,8.118,11.623
	c0.029,7.211-6.305,10.147-7.794,10.737H111.01c-1.08,0-10.659,0.18-14.854,4.613c-4.944,5.21-1.878,12.386,0.432,15.451
	c0.188,0.245,18.524,24.692,19.446,39.582c0.949,15.257-4.714,29.003-10.198,30.637c-4.304,1.209-9.197,1.612-9.981,0.921
	c-0.612-0.957-1.317-5.872-1.886-9.816c-1.26-8.852-2.836-19.87-6.873-26.037c-4.304-6.557-15.113-15.732-24.656-23.829
	c-5.844-4.958-11.371-9.644-12.954-11.788c-4.116-5.599-10.91-13.098-16.912-19.705c-4.592-5.059-8.91-9.838-9.803-11.378
	c-1.396-2.375-3.728-7.211-3.728-12.774V51.484H19.027z"/>
</svg>
