<?xml version="1.0" encoding="utf-8"?>
<!-- Generator: Adobe Illustrator 16.0.0, SVG Export Plug-In . SVG Version: 6.00 Build 0)  -->
<!DOCTYPE svg PUBLIC "-//W3C//DTD SVG 1.1//EN" "http://www.w3.org/Graphics/SVG/1.1/DTD/svg11.dtd">
<svg version="1.1" id="Layer_1" xmlns="http://www.w3.org/2000/svg" xmlns:xlink="http://www.w3.org/1999/xlink" x="0px" y="0px"
	 width="124.5px" height="123px" viewBox="0 0 124.5 123" enable-background="new 0 0 124.5 123" xml:space="preserve">
<circle fill="none" stroke="#2EB34A" stroke-width="6" stroke-miterlimit="10" cx="62.5" cy="60.5" r="56.5"/>
<path fill="none" stroke="#2EB34A" stroke-width="4" stroke-miterlimit="10" d="M25.406,60.538
	c0,20.483,16.606,37.091,37.091,37.091c20.485,0,37.091-16.607,37.091-37.091H25.406L25.406,60.538z"/>
<g>
	<path fill="#2EB34A" d="M58.26,41.861c-0.401-7.452-5.72-12.771-13.171-13.172c-7.436-0.4-12.804,6.324-13.172,13.172
		c-0.155,2.876,4.306,2.861,4.461,0c0.605-11.228,16.818-11.228,17.422,0C53.954,44.723,58.415,44.738,58.26,41.861L58.26,41.861z"
		/>
	<path fill="#2EB34A" d="M90.402,41.861C90,34.409,84.682,29.091,77.23,28.689c-7.437-0.4-12.804,6.324-13.172,13.172
		c-0.156,2.876,4.307,2.861,4.461,0c0.604-11.228,16.815-11.228,17.422,0C86.096,44.723,90.557,44.738,90.402,41.861L90.402,41.861z
		"/>
</g>
</svg>
