<?xml version="1.0" encoding="utf-8"?>
<!-- Generator: Adobe Illustrator 16.0.0, SVG Export Plug-In . SVG Version: 6.00 Build 0)  -->
<!DOCTYPE svg PUBLIC "-//W3C//DTD SVG 1.1//EN" "http://www.w3.org/Graphics/SVG/1.1/DTD/svg11.dtd">
<svg version="1.1" id="Layer_1" xmlns="http://www.w3.org/2000/svg" xmlns:xlink="http://www.w3.org/1999/xlink" x="0px" y="0px"
	 width="124.5px" height="123px" viewBox="0 0 124.5 123" enable-background="new 0 0 124.5 123" xml:space="preserve">
<path fill="#F9EC00" stroke="#000000" stroke-width="5" stroke-miterlimit="10" d="M62.793,4.76
	c-31.581,0-57.275,25.698-57.275,57.279c0,31.578,25.694,57.271,57.275,57.271c31.582,0,57.275-25.693,57.275-57.271
	C120.068,30.458,94.375,4.76,62.793,4.76z"/>
<path d="M46.708,67.117c3.479,0,6.104-5.822,6.104-13.546c0-7.724-2.625-13.546-6.104-13.546s-6.104,5.822-6.104,13.546
	C40.604,61.295,43.229,67.117,46.708,67.117z"/>
<path d="M78.936,67.117c3.478,0,6.103-5.822,6.103-13.546c0-7.724-2.625-13.546-6.103-13.546c-3.481,0-6.115,5.822-6.115,13.546
	C72.82,61.295,75.452,67.117,78.936,67.117z"/>
<g>
	<g>
		<path d="M90.268,80.282c-2.596,9.401-14.742,16.993-26.892,16.745c-12.148,0.253-24.3-7.334-26.9-16.737
			c-0.729-1.865-2.503-3.216-4.471-3.274c-1.943-0.059-3.445,1.62-2.704,4.104c2.182,11.988,18.131,22.813,34.076,22.391
			c15.946,0.416,31.889-10.414,34.063-22.402c0.736-2.471-0.763-4.148-2.705-4.09C92.768,77.074,90.993,78.425,90.268,80.282z"/>
	</g>
</g>
</svg>
